#!OML:ASF E:/inclinewalkrobotboard/Project1/Captureday1/Session1/subject1.ASF
:FULLY-SPECIFIED
:DEGREES
301
root 0 0 0 -1.4046764141277088 -5.940570588753816 -7.500937120897312
lowerback 10.59099979763649 1.8956958580403032 6.552962015065595
upperback 0.5566132618616212 3.415332081343858 2.1762522244205726
thorax -5.133817278247137 1.5457954274269938 -1.8959315123034428
lowerneck -18.5511509167707 -3.1871810048970515 -1.8777127223318617
upperneck 20.131764377686373 -4.074358885028932 0.3175360219748462
head 9.420943635271188 -1.9571406146149601 -0.13454505467003391
rclavicle -7.205944127891427E-15 2.577623867358404E-15
rhumerus -30.546818896276417 -16.05483470610508 -80.92050441793252
rradius 25.157079787463395
rwrist 3.5409405206785207
rhand -18.617289055233098 26.321816196370406
rfingers 7.1250200000000135
rthumb 7.671707723546124 -3.537303607954641
lclavicle -7.647430339720042E-15 2.015894228655931E-15
lhumerus -33.229181683090886 0.5891798624465524 84.58131531424594
lradius 26.255154562690507
lwrist 6.0815988714020435
lhand -27.588660212243713 24.557532319558394
lfingers 7.1250200000000286
lthumb -0.9928305301492584 54.553867960250514
rfemur -3.5418227830659132 8.318345785648766 34.55136314017451
rtibia 24.359679172218527
rfoot -22.26174775109514 -6.74939551555252
rtoes 8.648477768810844
lfemur -28.83251489762465 0.06864905831437396 -13.729096044911635
ltibia 31.174556474754187
lfoot -7.034773845158187 1.8037813687898048
ltoes -0.654173143292514
302
root 0 0 0 -0.9388762410371834 -6.204152710454264 -7.431826430232455
lowerback 10.502376517725436 2.021876295884811 6.540095065892087
upperback 0.7239611563222292 3.547464679275297 2.0212212848024764
thorax -4.904518034536732 1.611900116440435 -2.0741506121004343
lowerneck -18.11392559370014 -3.0657641563556095 -1.82744212049808
upperneck 18.91350926683206 -3.8579413005002343 0.295531809342112
head 8.89031143513371 -1.8850617116499473 -0.1114181306505474
rclavicle -7.430042433115472E-15 1.6589563250403486E-15
rhumerus -29.904520639817655 -14.970699786233034 -81.15440300177673
rradius 26.150335251824863
rwrist 2.6398421333093465
rhand -18.768198851961422 26.475909358633913
rfingers 7.125020000000011
rthumb 7.526496528075055 -3.3873298597298955
lclavicle -7.754439191589901E-15 1.2331399902634604E-15
lhumerus -33.67032949065947 1.322917443202761 84.56653271505031
lradius 25.541440461355165
lwrist 5.856013043418075
lhand -27.5916112537861 24.7575017393881
lfingers 7.1250200000000286
lthumb -0.9953561242629467 54.760015259086614
rfemur 1.0471179848686711 8.527357259400015 35.37918603320551
rtibia 24.497785239626097
rfoot -22.030301779391454 -6.1268061709934045
rtoes 3.85860026849564
lfemur -26.89488715037777 -3.587040283581729 -12.894571612677723
ltibia 22.036534032407257
lfoot -5.2216619961261905 3.5047937766262285
ltoes 0.40855530731136724
303
root 0 0 0 -0.8432403272520408 -6.2828671907153595 -7.33657525210265
lowerback 10.425222789552413 2.090244702186651 6.464727952154411
upperback 0.7484287512413328 3.6153413790499673 1.9394744116232032
thorax -4.836970447482541 1.6475273834357558 -2.1260716485958766
lowerneck -17.98726496722695 -3.02027660980593 -1.813848403775281
upperneck 18.38331557786395 -3.785708913822772 0.31850882209183506
head 8.675614575595517 -1.8581342863023957 -0.09245976655128668
rclavicle -7.994832125651075E-15 -2.316878973742435E-16
rhumerus -29.879000937971256 -15.115364717170735 -81.01567208968454
rradius 26.083194890507592
rwrist 2.5019931235605037
rhand -18.775371724660246 26.470648923875245
rfingers 7.125020000000011
rthumb 7.519928135106188 -3.3857907393109983
lclavicle -8.46609272080321E-15 -8.165764288584904E-16
lhumerus -34.391624347056634 2.243031696801596 84.37244189224783
lradius 24.738198409914865
lwrist 5.375422700572054
lhand -27.517015786523505 24.59304187646438
lfingers 7.125020000000032
lthumb -0.920881373973689 54.59750596262978
rfemur 8.313072498382404 8.848514915480521 36.43776255738672
rtibia 24.314735660523016
rfoot -20.8801370485826 -4.575533172414151
rtoes -3.8391983789274384
lfemur -26.550625609507822 -4.479943562142147 -12.674810986902655
ltibia 21.302000851151377
lfoot -5.071248632634655 3.8033969759913497
ltoes 0.2667612302708875
304
root 0 0 0 -1.0694442823287198 -6.2579829520825045 -7.056124706683966
lowerback 10.36064922773552 2.136370498894804 6.2407630838366375
upperback 0.6980752491586689 3.650283940223659 1.8823600043689197
thorax -4.8580703015681586 1.6711939810495442 -2.0595117005605292
lowerneck -18.052945240306048 -3.07597980069321 -1.862082494756836
upperneck 18.69662297966235 -3.878600845134543 0.39791275967832296
head 8.803727326277265 -1.89135470322998 -0.07191703203900257
rclavicle -9.029240808642436E-15 -1.6986207519868515E-15
rhumerus -30.391977938320526 -16.05587733734372 -80.66413727499122
rradius 25.22228265270556
rwrist 3.164810216165294
rhand -18.68093920328689 26.357521373176333
rfingers 7.125020000000012
rthumb 7.611129391813819 -3.492287742734966
lclavicle -9.889251908209693E-15 -2.3239306929648802E-15
lhumerus -35.78212249702068 3.811379297980191 83.4955169992076
lradius 23.74464885641136
lwrist 4.41551488565503
lhand -27.11722112231305 24.2790790169915
lfingers 7.125020000000032
lthumb -0.5348332159898801 54.273479180044376
rfemur 9.146989862961522 8.318437301446242 35.77204176065617
rtibia 27.403450158252525
rfoot -18.65704961060988 -3.5436230228413685
rtoes -5.36120443212541
lfemur -26.519531963105045 -4.126649549206986 -13.182075747979171
ltibia 21.74659059098548
lfoot -4.837397024391695 3.036671142435044
ltoes 0.3827866153628534
305
root 0 0 0 -1.5159406703569 -6.221985675010118 -6.432901683239203
lowerback 10.413934365376532 2.1532659749764242 5.717399007268191
upperback 0.6119392486394675 3.6197205242991073 1.7950758641630027
thorax -4.991531046143759 1.6691239001402576 -1.8475606783511247
lowerneck -18.152920133079135 -3.196284900191192 -1.9366447171055357
upperneck 19.37036913211132 -4.063592103964863 0.49138752975130706
head 9.072502460239868 -1.9629758756997937 -0.05601858613603644
rclavicle -8.275407458566623E-15 -1.8818178805632805E-15
rhumerus -31.02241383301321 -17.1326170006476 -80.3162383474985
rradius 24.204077790239708
rwrist 4.031461685040239
rhand -18.546164899373007 26.26721418926156
rfingers 7.1250200000000135
rthumb 7.74076028769752 -3.5757060415687576
lclavicle -9.49006723393174E-15 -2.4138059715661153E-15
lhumerus -37.649408002067716 6.083039143374092 81.87955336261012
lradius 22.468473597698193
lwrist 3.049463269096911
lhand -26.45645081904011 23.985736107881667
lfingers 7.125020000000028
lthumb 0.10227177732134951 53.96650330511408
rfemur 7.4997373266022995 5.915403929786528 31.243178096319355
rtibia 35.63803244589213
rfoot -12.162212965341546 -1.5849130330120738
rtoes -4.815228010326528
lfemur -26.28035590118135 -3.4751794814498114 -13.881802126735675
ltibia 22.338500658802836
lfoot -4.71774997843962 2.1454385849964908
ltoes 0.39139410263181773
306
root 0 0 0 -2.316496185432123 -6.157136800153962 -4.663902166256181
lowerback 10.666628143832815 2.153599887015892 4.2208138580909145
upperback 0.44045048809610976 3.443436821742514 1.4386095989389756
thorax -5.364078674335329 1.6149077954080318 -1.3583719338980877
lowerneck -17.725810511161896 -3.3564093031176943 -1.9461492578677304
upperneck 19.07764100634065 -4.267562477472022 0.6177982087797481
head 8.91401848599613 -2.0634093023150126 -0.028210522231742863
rclavicle -5.9447811459419284E-15 -1.7714178000386024E-15
rhumerus -31.73249253895524 -18.49571118772836 -79.83539980324296
rradius 22.976261141973517
rwrist 4.9928628951002425
rhand -18.360450631427874 26.176481401506713
rfingers 7.125020000000017
rthumb 7.919537697125827 -3.6570566727585785
lclavicle -6.8460995473980975E-15 -2.291181656944289E-15
lhumerus -38.875637535930714 7.866155652048085 80.43407227980481
lradius 21.537218340574032
lwrist 2.2230686871830625
lhand -26.090725368369817 24.043756653295905
lfingers 7.125020000000023
lthumb 0.45221345731260953 54.016805295625424
rfemur -2.519828872613732 3.267524568035931 24.295271593563527
rtibia 48.181773687056705
rfoot 2.514875507561902 -0.35984401167555147
rtoes 0.6172167921797473
lfemur -25.56096691278742 -2.660911515892839 -14.811225673476061
ltibia 23.053871394686432
lfoot -4.890751367826626 1.2242433033128597
ltoes 0.37175697545740505
307
root 0 0 0 -3.3929855569586063 -5.77271362512041 -2.4796723938380385
lowerback 10.122030909516463 1.9964012851749047 2.098399303321906
upperback 0.038197193268144886 2.962146863344582 1.0350036702012932
thorax -5.575953827925495 1.4289450141351154 -0.5180802303165554
lowerneck -16.671889460610856 -3.123512162311099 -1.7026625785757532
upperneck 20.348065099549803 -4.024055324346918 0.7328056780770015
head 9.1894327617743 -1.9254347784731425 0.0023481966213170224
rclavicle -4.254566541521927E-15 -2.3076659019356113E-15
rhumerus -32.60185779438299 -20.29978169058124 -79.12411257368043
rradius 21.377118146583193
rwrist 6.037798041091253
rhand -18.123407797891222 26.09946545044233
rfingers 7.125020000000021
rthumb 8.147046927079217 -3.7217637507246195
lclavicle -4.749216681321015E-15 -2.8032104383875505E-15
lhumerus -39.039008365448886 8.4990703918811 79.78178553915342
lradius 21.227959939920286
lwrist 2.163735044838913
lhand -26.178866517330377 23.98634658335194
lfingers 7.1250200000000214
lthumb 0.36594477072814247 53.951646610682175
rfemur -8.932896678274874 2.4585163631130227 25.376146113535746
rtibia 64.10918336577205
rfoot 9.615286750909418 -1.3726359611377208
rtoes 11.91191169498488
lfemur -22.36567279595395 -2.035113383360497 -17.142007696837545
ltibia 23.550073148679726
lfoot -5.7008772615054735 0.12884151967837854
ltoes 2.4705679851096036
308
root 0 0 0 -4.0706041357389005 -5.41455931201947 -0.4088461546496047
lowerback 9.393250611714539 1.6103829730746715 -0.07725863045586912
upperback -0.18339656754465622 2.165745423526257 0.69589385824322
thorax -5.451730734608598 1.0866238082715416 0.48037883612044263
lowerneck -16.43153525445626 -2.6250100327561814 -1.5324732042454128
upperneck 23.777243423000698 -3.487011635536456 0.6714024987210138
head 10.397425064803352 -1.6111690032891124 -0.002036219386670368
rclavicle -3.699918272665465E-15 -3.9982501808723944E-16
rhumerus -33.696577051844045 -21.90421266598546 -78.55569901896298
rradius 19.984767824411783
rwrist 6.883669252203396
rhand -17.943273774522392 25.908039038541745
rfingers 7.125020000000022
rthumb 8.319925753575971 -3.8934355834410894
lclavicle -4.03941499020742E-15 -1.2419622408443275E-15
lhumerus -38.72715285332748 8.466454566729457 79.64389866725696
lradius 21.26304173174033
lwrist 2.268540446684503
lhand -26.369244535269925 23.655244116371087
lfingers 7.125020000000021
lthumb 0.17966323851330213 53.62081853928731
rfemur -12.754860092209011 2.0158121429976124 26.73394966569316
rtibia 70.65917632319326
rfoot 7.72489688692786 -3.0092510860895607
rtoes 15.668460529972226
lfemur -13.722801003602175 -2.450061506256322 -22.28541654355616
ltibia 22.46832087155517
lfoot -7.6934286242430625 -1.0114401984287684
ltoes 7.978590045987929
